HIERARCHY
ROOT Hips
{
  OFFSET 0 0 0
  CHANNELS 6 Xposition Yposition Zposition Zrotation Yrotation Xrotation
  JOINT LeftThigh
  {
    OFFSET 8.409438 0 -5.917753
    CHANNELS 3 Zrotation Yrotation Xrotation
    JOINT LeftLeg
    {
      OFFSET 0 0 -42.358652
      CHANNELS 3 Zrotation Yrotation Xrotation
      JOINT LeftFoot
      {
        OFFSET 0 0 -39.357303
        CHANNELS 3 Zrotation Yrotation Xrotation
      }
    }
  }
  JOINT RightThigh
  {
    OFFSET -8.409438 0 -5.917753
    CHANNELS 3 Zrotation Yrotation Xrotation
    JOINT RightLeg
    {
      OFFSET 0 0 -42.358652
      CHANNELS 3 Zrotation Yrotation Xrotation
      JOINT RightFoot
      {
        OFFSET 0 0 -39.357303
        CHANNELS 3 Zrotation Yrotation Xrotation
      }
    }
  }
  JOINT SpineLow
  {
    OFFSET 0 0 4.719101
    CHANNELS 3 Zrotation Yrotation Xrotation
    JOINT SpineMid
    {
      OFFSET 0 0 12.899191
      CHANNELS 3 Zrotation Yrotation Xrotation
      JOINT Chest
      {
        OFFSET 0 0 12.899191
        CHANNELS 3 Zrotation Yrotation Xrotation
        JOINT LeftShoulder
        {
          OFFSET 7.550562 1.41573 9.438202
          CHANNELS 3 Zrotation Yrotation Xrotation
          JOINT LeftArm
          {
            OFFSET 9.155056 0 4.247191
            CHANNELS 3 Zrotation Yrotation Xrotation
            JOINT LeftForearm
            {
              OFFSET 0 0 25.771955
              CHANNELS 3 Zrotation Yrotation Xrotation
              JOINT LeftHand
              {
                OFFSET 0 0 25.197169
                CHANNELS 3 Zrotation Yrotation Xrotation
              }
            }
          }
        }
        JOINT RightShoulder
        {
          OFFSET -7.550562 1.41573 9.438202
          CHANNELS 3 Zrotation Yrotation Xrotation
          JOINT RightArm
          {
            OFFSET -9.155056 0 4.247191
            CHANNELS 3 Zrotation Yrotation Xrotation
            JOINT RightForearm
            {
              OFFSET 0 0 -25.771955
              CHANNELS 3 Zrotation Yrotation Xrotation
              JOINT RightHand
              {
                OFFSET 0 0 -25.197169
                CHANNELS 3 Zrotation Yrotation Xrotation
              }
            }
          }
        }
        JOINT Neck
        {
          OFFSET 0 0 15.101124
          CHANNELS 3 Zrotation Yrotation Xrotation
          JOINT Head
          {
            OFFSET 0 0 11.325843
            CHANNELS 3 Zrotation Yrotation Xrotation
            End Site
            {
              OFFSET 0 0 14.157303
            }
          }
        }
      }
    }
  }
}
MOTION
Frames: 8
Frame Time: 0.0
0.0  89.887642  0.0  12.639299  -62.417658  -112.362061  45.382449  -33.87134  -31.812268  20.224998  24.925372  77.666617  -2.970718  0.212412  -0.336733  -10.053302  21.989466  -29.550916  13.276553  8.689932  59.70166  15.410071  8.273115  -6.457371  1.287338  0.969384  0.79356  3.551893  2.606269  2.221084  3.551893  2.606269  2.221083  -12.879924  24.579459  14.154302  -94.794086  49.502686  -76.427965  -33.290408  4.521787  85.043652  83.062164  -9.154634  -0.32258  -6.613097  2.258073  26.051823  132.33156  29.595868  41.593964  -10.407177  5.906205  -76.205597  87.369794  8.061221  -23.632306  14.935287  -5.532165  5.089178  11.239811  -4.028013  3.952311  
0.0  89.887642  0.0  12.413611  -62.236482  -112.097128  45.423347  -33.875456  -32.104941  20.175522  25.054405  77.736563  -2.948044  0.28921  -0.188042  -9.461497  22.161659  -29.358258  12.829435  8.851978  59.852674  15.27382  8.148617  -6.414208  1.216221  0.964398  0.779182  3.356697  2.595807  2.178741  3.356697  2.595806  2.178741  -12.573578  24.679207  14.124407  -94.807894  49.467004  -76.451336  -33.459962  4.299257  84.703821  82.778545  -9.313502  -0.147103  -6.243599  2.21362  26.110797  131.837943  29.882536  41.468286  -10.268018  5.97824  -76.187966  87.618201  8.075445  -23.939339  15.12495  -5.500606  5.089818  11.3818  -4.0028  3.953833  
0.0  89.887642  0.0  12.157853  -62.099622  -111.837589  45.508204  -33.979066  -32.363368  20.088961  25.255659  77.740432  -2.882928  0.379452  -0.054348  -9.029891  22.238843  -29.140253  12.444298  9.008881  59.966496  15.258011  8.056852  -6.312672  1.204211  0.961255  0.77196  3.323466  2.587986  2.158368  3.323466  2.587986  2.158368  -12.687388  24.719298  14.024304  -94.731056  49.478652  -76.438393  -33.519733  4.210081  84.549604  82.70429  -9.295233  -0.118506  -6.318557  2.172144  26.022833  131.861148  29.884546  41.470831  -10.17549  5.924917  -76.176791  87.7308  7.980987  -23.9431  15.049899  -5.516567  5.070306  11.32545  -4.015856  3.938872  
0.0  89.887642  0.0  11.897602  -61.930941  -111.569455  45.577456  -34.109639  -32.571031  20.182161  25.376079  77.83104  -2.828527  0.363637  0.031907  -8.563814  22.338967  -28.943834  12.276997  9.031105  59.932919  15.013641  7.719126  -6.02867  1.161273  0.961348  0.764848  3.205786  2.590011  2.137263  3.205786  2.590011  2.137263  -12.542609  24.75984  13.913145  -94.668663  49.425162  -76.363866  -33.525943  4.081855  84.349752  82.599107  -9.341403  -0.061691  -6.108429  2.060141  26.038655  131.420396  30.165548  41.359148  -10.245185  5.801233  -76.024037  87.718074  7.721606  -23.341777  15.113628  -5.527808  5.038763  11.372975  -4.024566  3.916087  
0.0  89.887642  0.0  11.632668  -61.801495  -111.299395  45.731996  -34.269012  -32.78237  20.222541  25.446208  77.890506  -2.824836  0.366335  0.124669  -8.356672  22.35617  -28.908755  12.09314  8.920727  60.072683  14.823339  7.645742  -5.845807  1.163325  0.958928  0.754491  3.210914  2.583838  2.108906  3.210914  2.583838  2.108906  -12.704378  24.795714  13.808179  -94.523866  49.410102  -76.249717  -33.532017  4.051922  84.236501  82.571985  -9.322958  -0.09392  -6.226022  1.978872  25.972218  131.439771  30.193316  41.414742  -10.182674  5.602302  -75.924189  87.763238  7.618741  -23.230457  14.990118  -5.564179  5.015343  11.280373  -4.053411  3.898216  
0.0  89.887642  0.0  11.507735  -61.71196  -111.112153  45.892957  -34.341302  -32.985806  20.148719  25.58069  77.787849  -2.74716  0.427741  0.281986  -8.113653  22.402325  -28.899497  12.193757  8.711387  60.142835  14.492329  7.49819  -5.654271  1.148907  0.965536  0.743923  3.171306  2.60287  2.079784  3.171305  2.60287  2.079783  -12.706994  24.824422  13.655539  -94.399241  49.37939  -76.108619  -33.597606  4.023651  84.03709  82.495215  -9.424476  -0.084139  -6.103145  1.864065  25.956402  131.279554  30.33051  41.427546  -10.210815  5.349219  -75.71892  87.821347  7.495179  -22.925283  14.999322  -5.576442  4.955802  11.286766  -4.063998  3.853943  
0.0  89.887642  0.0  11.408743  -61.698317  -111.002817  46.17463  -34.447036  -33.134819  20.123781  25.706257  77.776603  -2.718008  0.452913  0.358032  -8.054451  22.387297  -28.945683  12.177735  8.591225  60.267341  14.25124  7.458976  -5.505613  1.153979  0.970992  0.736671  3.185073  2.617968  2.060428  3.185074  2.617968  2.060429  -12.739927  24.829193  13.523937  -94.303285  49.383152  -76.009544  -33.669686  4.082677  83.936627  82.462783  -9.483398  -0.09086  -6.056115  1.767682  25.909897  131.264352  30.373627  41.507544  -10.196883  5.0755  -75.568077  87.842778  7.418938  -22.744039  14.957147  -5.595758  4.904809  11.254767  -4.080065  3.815757  
0.0  89.887642  0.0  11.404762  -61.690601  -110.951564  46.388346  -34.457888  -33.299487  19.942228  25.924168  77.640584  -2.526931  0.580754  0.505496  -8.015531  22.406765  -29.084024  12.25649  8.472997  60.381727  14.016293  7.302452  -5.307441  1.140098  0.991656  0.738794  3.147902  2.674765  2.066706  3.147902  2.674766  2.066706  -12.652075  24.756612  13.322661  -94.263009  49.32696  -75.95587  -33.70818  4.147809  83.83412  82.410411  -9.525229  -0.02314  -5.851103  1.591148  25.847174  131.376054  30.320905  41.677861  -10.251162  4.762304  -75.407144  87.86218  7.346674  -22.534631  15.05432  -5.602256  4.787301  11.326505  -4.08708  3.728717  
